<svg xmlns="http://www.w3.org/2000/svg" width="1062" height="348" viewBox="0 0 1062 348">
<rect width="1062" height="348" fill="#f8fafc"/>
<text x="531.0" y="26" text-anchor="middle" font-family="system-ui,Arial" font-size="15" font-weight="700" fill="#0f172a">10-Team Double Bye  (2027 Format)</text>
<line x1="174.0" y1="54.0" x2="207.0" y2="54.0" stroke="#94a3b8" stroke-width="1.5"/>
<line x1="207.0" y1="54.0" x2="207.0" y2="82.0" stroke="#94a3b8" stroke-width="1.5"/>
<line x1="207.0" y1="82.0" x2="240.0" y2="82.0" stroke="#94a3b8" stroke-width="1.5"/>
<line x1="174.0" y1="134.0" x2="207.0" y2="134.0" stroke="#94a3b8" stroke-width="1.5"/>
<line x1="207.0" y1="134.0" x2="207.0" y2="106.0" stroke="#94a3b8" stroke-width="1.5"/>
<line x1="207.0" y1="106.0" x2="240.0" y2="106.0" stroke="#94a3b8" stroke-width="1.5"/>
<line x1="174.0" y1="214.0" x2="207.0" y2="214.0" stroke="#94a3b8" stroke-width="1.5"/>
<line x1="207.0" y1="214.0" x2="207.0" y2="242.0" stroke="#94a3b8" stroke-width="1.5"/>
<line x1="207.0" y1="242.0" x2="240.0" y2="242.0" stroke="#94a3b8" stroke-width="1.5"/>
<line x1="174.0" y1="294.0" x2="207.0" y2="294.0" stroke="#94a3b8" stroke-width="1.5"/>
<line x1="207.0" y1="294.0" x2="207.0" y2="266.0" stroke="#94a3b8" stroke-width="1.5"/>
<line x1="207.0" y1="266.0" x2="240.0" y2="266.0" stroke="#94a3b8" stroke-width="1.5"/>
<line x1="390.0" y1="94.0" x2="423.0" y2="94.0" stroke="#94a3b8" stroke-width="1.5"/>
<line x1="423.0" y1="94.0" x2="423.0" y2="106.0" stroke="#94a3b8" stroke-width="1.5"/>
<line x1="423.0" y1="106.0" x2="456.0" y2="106.0" stroke="#94a3b8" stroke-width="1.5"/>
<line x1="390.0" y1="254.0" x2="423.0" y2="254.0" stroke="#94a3b8" stroke-width="1.5"/>
<line x1="423.0" y1="254.0" x2="423.0" y2="266.0" stroke="#94a3b8" stroke-width="1.5"/>
<line x1="423.0" y1="266.0" x2="456.0" y2="266.0" stroke="#94a3b8" stroke-width="1.5"/>
<line x1="606.0" y1="94.0" x2="639.0" y2="94.0" stroke="#94a3b8" stroke-width="1.5"/>
<line x1="639.0" y1="94.0" x2="639.0" y2="162.0" stroke="#94a3b8" stroke-width="1.5"/>
<line x1="639.0" y1="162.0" x2="672.0" y2="162.0" stroke="#94a3b8" stroke-width="1.5"/>
<line x1="606.0" y1="254.0" x2="639.0" y2="254.0" stroke="#94a3b8" stroke-width="1.5"/>
<line x1="639.0" y1="254.0" x2="639.0" y2="186.0" stroke="#94a3b8" stroke-width="1.5"/>
<line x1="639.0" y1="186.0" x2="672.0" y2="186.0" stroke="#94a3b8" stroke-width="1.5"/>
<line x1="822.0" y1="174.0" x2="855.0" y2="174.0" stroke="#94a3b8" stroke-width="1.5"/>
<line x1="855.0" y1="174.0" x2="855.0" y2="174.0" stroke="#94a3b8" stroke-width="1.5"/>
<line x1="855.0" y1="174.0" x2="888.0" y2="174.0" stroke="#94a3b8" stroke-width="1.5"/>
<rect x="24.0" y="30.0" width="150" height="48" rx="5" fill="#ffffff" stroke="#cbd5e1" stroke-width="1.5"/>
<line x1="24.0" y1="54.0" x2="174.0" y2="54.0" stroke="#cbd5e1" stroke-width="1"/>
<text x="36.0" y="47.0" font-family="system-ui,Arial" font-size="12" font-weight="700" fill="#2563eb">Seed 3</text>
<text x="36.0" y="71.0" font-family="system-ui,Arial" font-size="12" font-weight="700" fill="#2563eb">Seed 10</text>
<rect x="24.0" y="110.0" width="150" height="48" rx="5" fill="#ffffff" stroke="#cbd5e1" stroke-width="1.5"/>
<line x1="24.0" y1="134.0" x2="174.0" y2="134.0" stroke="#cbd5e1" stroke-width="1"/>
<text x="36.0" y="127.0" font-family="system-ui,Arial" font-size="12" font-weight="700" fill="#2563eb">Seed 6</text>
<text x="36.0" y="151.0" font-family="system-ui,Arial" font-size="12" font-weight="700" fill="#2563eb">Seed 7</text>
<rect x="24.0" y="190.0" width="150" height="48" rx="5" fill="#ffffff" stroke="#cbd5e1" stroke-width="1.5"/>
<line x1="24.0" y1="214.0" x2="174.0" y2="214.0" stroke="#cbd5e1" stroke-width="1"/>
<text x="36.0" y="207.0" font-family="system-ui,Arial" font-size="12" font-weight="700" fill="#2563eb">Seed 4</text>
<text x="36.0" y="231.0" font-family="system-ui,Arial" font-size="12" font-weight="700" fill="#2563eb">Seed 9</text>
<rect x="24.0" y="270.0" width="150" height="48" rx="5" fill="#ffffff" stroke="#cbd5e1" stroke-width="1.5"/>
<line x1="24.0" y1="294.0" x2="174.0" y2="294.0" stroke="#cbd5e1" stroke-width="1"/>
<text x="36.0" y="287.0" font-family="system-ui,Arial" font-size="12" font-weight="700" fill="#2563eb">Seed 5</text>
<text x="36.0" y="311.0" font-family="system-ui,Arial" font-size="12" font-weight="700" fill="#2563eb">Seed 8</text>
<rect x="240.0" y="70.0" width="150" height="48" rx="5" fill="#ffffff" stroke="#cbd5e1" stroke-width="1.5"/>
<line x1="240.0" y1="94.0" x2="390.0" y2="94.0" stroke="#cbd5e1" stroke-width="1"/>
<rect x="240.0" y="230.0" width="150" height="48" rx="5" fill="#ffffff" stroke="#cbd5e1" stroke-width="1.5"/>
<line x1="240.0" y1="254.0" x2="390.0" y2="254.0" stroke="#cbd5e1" stroke-width="1"/>
<rect x="456.0" y="70.0" width="150" height="48" rx="5" fill="#ffffff" stroke="#cbd5e1" stroke-width="1.5"/>
<line x1="456.0" y1="94.0" x2="606.0" y2="94.0" stroke="#cbd5e1" stroke-width="1"/>
<text x="468.0" y="87.0" font-family="system-ui,Arial" font-size="12" font-weight="700" fill="#2563eb">Seed 1 (bye)</text>
<rect x="456.0" y="230.0" width="150" height="48" rx="5" fill="#ffffff" stroke="#cbd5e1" stroke-width="1.5"/>
<line x1="456.0" y1="254.0" x2="606.0" y2="254.0" stroke="#cbd5e1" stroke-width="1"/>
<text x="468.0" y="247.0" font-family="system-ui,Arial" font-size="12" font-weight="700" fill="#2563eb">Seed 2 (bye)</text>
<rect x="672.0" y="150.0" width="150" height="48" rx="5" fill="#ffffff" stroke="#cbd5e1" stroke-width="1.5"/>
<line x1="672.0" y1="174.0" x2="822.0" y2="174.0" stroke="#cbd5e1" stroke-width="1"/>
<rect x="888.0" y="157.0" width="150" height="34" rx="5" fill="#eff6ff" stroke="#2563eb" stroke-width="1.5"/><text x="963.0" y="178.0" text-anchor="middle" font-family="system-ui,Arial" font-size="12" font-weight="700" fill="#2563eb">Champion</text>
</svg>